<svg width="35" height="41" viewBox="0 0 35 41" fill="none" xmlns="http://www.w3.org/2000/svg">
<path d="M12.5251 24.4038L12.359 24.3158C11.6849 23.9739 11.128 23.417 10.786 22.7429L10.6981 22.5768C10.3561 21.9124 9.41823 21.9124 9.07628 22.5768L8.98835 22.7429C8.6464 23.417 8.08951 23.9739 7.41538 24.3158L7.24929 24.4038C6.58493 24.7457 6.58493 25.6836 7.24929 26.0256L7.41538 26.1135C8.08951 26.4555 8.6464 27.0124 8.98835 27.6865L9.07628 27.8526C9.41823 28.5169 10.3561 28.5169 10.6981 27.8526L10.786 27.6865C11.128 27.0124 11.6849 26.4555 12.359 26.1135L12.5251 26.0256C13.1894 25.6836 13.1894 24.7457 12.5251 24.4038Z" fill="url(#paint0_radial_1_114)"/>
<path d="M16.6773 19.9975L16.8336 19.6849C17.3319 18.7079 18.1135 17.9263 19.0905 17.428L19.4031 17.2717C20.4583 16.7343 21.1129 15.6596 21.1129 14.4775C21.1129 13.2953 20.4583 12.2206 19.4031 11.6735L19.0905 11.5172C18.1135 11.0189 17.3319 10.2373 16.8336 9.2603L16.6773 8.94766C16.14 7.8925 15.0653 7.23792 13.8831 7.23792C12.7009 7.23792 11.6262 7.8925 11.0791 8.94766L10.9228 9.2603C10.4245 10.2373 9.64294 11.0189 8.66594 11.5172L8.3533 11.6735C7.29814 12.2108 6.64355 13.2855 6.64355 14.4775C6.64355 15.6694 7.29814 16.7343 8.3533 17.2815L8.66594 17.4378C9.64294 17.936 10.4245 18.7176 10.9228 19.6946L11.0791 20.0073C11.6165 21.0624 12.6912 21.717 13.8831 21.717C15.075 21.717 16.14 21.0624 16.6871 20.0073L16.6773 19.9975ZM14.2251 18.3562L14.0687 18.6688C14.0687 18.6688 14.0101 18.786 13.8831 18.786C13.7561 18.786 13.7073 18.6981 13.6975 18.6688L13.5412 18.3562C12.7596 16.8223 11.5383 15.601 10.0044 14.8194L9.69179 14.6631C9.69179 14.6631 9.57455 14.6045 9.57455 14.4775C9.57455 14.3505 9.66248 14.3016 9.69179 14.2918L10.0044 14.1355C11.5383 13.3539 12.7596 12.1327 13.5412 10.5988L13.6975 10.2861C13.6975 10.2861 13.7561 10.1689 13.8831 10.1689C14.0101 10.1689 14.059 10.2471 14.0687 10.2861L14.2251 10.5988C15.0067 12.1327 16.2279 13.3539 17.7618 14.1355L18.0744 14.2918C18.0744 14.2918 18.1917 14.3505 18.1917 14.4775C18.1917 14.6045 18.1037 14.6533 18.0744 14.6631L17.7618 14.8194C16.2279 15.601 15.0067 16.8223 14.2251 18.3562Z" fill="url(#paint1_radial_1_114)"/>
<path d="M12.5251 31.5652L12.359 31.4772C11.6849 31.1353 11.128 30.5784 10.786 29.9043L10.6981 29.7382C10.3561 29.0738 9.41823 29.0738 9.07628 29.7382L8.98835 29.9043C8.6464 30.5784 8.08951 31.1353 7.41538 31.4772L7.24929 31.5652C6.58493 31.9071 6.58493 32.845 7.24929 33.187L7.41538 33.2749C8.08951 33.6169 8.6464 34.1737 8.98835 34.8479L9.07628 35.014C9.41823 35.6783 10.3561 35.6783 10.6981 35.014L10.786 34.8479C11.128 34.1737 11.6849 33.6169 12.359 33.2749L12.5251 33.187C13.1894 32.845 13.1894 31.9071 12.5251 31.5652Z" fill="url(#paint2_radial_1_114)"/>
<path d="M26.6622 23.7492H15.9153C15.1044 23.7492 14.4498 24.4038 14.4498 25.2147C14.4498 26.0256 15.1044 26.6802 15.9153 26.6802H26.6622C27.4732 26.6802 28.1277 26.0256 28.1277 25.2147C28.1277 24.4038 27.4732 23.7492 26.6622 23.7492Z" fill="url(#paint3_radial_1_114)"/>
<path d="M26.6622 30.9106H15.9153C15.1044 30.9106 14.4498 31.5652 14.4498 32.3761C14.4498 33.187 15.1044 33.8416 15.9153 33.8416H26.6622C27.4732 33.8416 28.1277 33.187 28.1277 32.3761C28.1277 31.5652 27.4732 30.9106 26.6622 30.9106Z" fill="url(#paint4_radial_1_114)"/>
<path d="M26.6622 16.578H23.7313C22.9203 16.578 22.2658 17.2326 22.2658 18.0435C22.2658 18.8544 22.9203 19.509 23.7313 19.509H26.6622C27.4732 19.509 28.1277 18.8544 28.1277 18.0435C28.1277 17.2326 27.4732 16.578 26.6622 16.578Z" fill="url(#paint5_radial_1_114)"/>
<path d="M26.6622 9.41662H23.7313C22.9203 9.41662 22.2658 10.0712 22.2658 10.8821C22.2658 11.693 22.9203 12.3476 23.7313 12.3476H26.6622C27.4732 12.3476 28.1277 11.693 28.1277 10.8821C28.1277 10.0712 27.4732 9.41662 26.6622 9.41662Z" fill="url(#paint6_radial_1_114)"/>
<rect x="0.616346" y="0.617445" width="33.2827" height="39.4462" rx="9.09111" stroke="url(#paint7_radial_1_114)" stroke-width="1.23269"/>
<defs>
<radialGradient id="paint0_radial_1_114" cx="0" cy="0" r="1" gradientTransform="matrix(20.2883 16.0231 -4.53256 146.064 7.42138 11.1619)" gradientUnits="userSpaceOnUse">
<stop stop-color="#8CDFF4"/>
<stop offset="1" stop-color="#3071E1"/>
</radialGradient>
<radialGradient id="paint1_radial_1_114" cx="0" cy="0" r="1" gradientTransform="matrix(20.2883 16.0231 -4.53256 146.064 7.42138 11.1619)" gradientUnits="userSpaceOnUse">
<stop stop-color="#8CDFF4"/>
<stop offset="1" stop-color="#3071E1"/>
</radialGradient>
<radialGradient id="paint2_radial_1_114" cx="0" cy="0" r="1" gradientTransform="matrix(20.2883 16.0231 -4.53256 146.064 7.42138 11.1619)" gradientUnits="userSpaceOnUse">
<stop stop-color="#8CDFF4"/>
<stop offset="1" stop-color="#3071E1"/>
</radialGradient>
<radialGradient id="paint3_radial_1_114" cx="0" cy="0" r="1" gradientTransform="matrix(20.2883 16.0231 -4.53256 146.064 7.42138 11.1619)" gradientUnits="userSpaceOnUse">
<stop stop-color="#8CDFF4"/>
<stop offset="1" stop-color="#3071E1"/>
</radialGradient>
<radialGradient id="paint4_radial_1_114" cx="0" cy="0" r="1" gradientTransform="matrix(20.2883 16.0231 -4.53256 146.064 7.42138 11.1619)" gradientUnits="userSpaceOnUse">
<stop stop-color="#8CDFF4"/>
<stop offset="1" stop-color="#3071E1"/>
</radialGradient>
<radialGradient id="paint5_radial_1_114" cx="0" cy="0" r="1" gradientTransform="matrix(20.2883 16.0231 -4.53256 146.064 7.42138 11.1619)" gradientUnits="userSpaceOnUse">
<stop stop-color="#8CDFF4"/>
<stop offset="1" stop-color="#3071E1"/>
</radialGradient>
<radialGradient id="paint6_radial_1_114" cx="0" cy="0" r="1" gradientTransform="matrix(20.2883 16.0231 -4.53256 146.064 7.42138 11.1619)" gradientUnits="userSpaceOnUse">
<stop stop-color="#8CDFF4"/>
<stop offset="1" stop-color="#3071E1"/>
</radialGradient>
<radialGradient id="paint7_radial_1_114" cx="0" cy="0" r="1" gradientTransform="matrix(32.5941 23.0528 -7.28178 210.145 1.24961 5.64667)" gradientUnits="userSpaceOnUse">
<stop stop-color="#8CDFF4"/>
<stop offset="1" stop-color="#3071E1"/>
</radialGradient>
</defs>
</svg>
