<svg width="55" height="55" viewBox="0 0 55 55" fill="none" xmlns="http://www.w3.org/2000/svg">
<path d="M10.4843 34.8249C10.1545 34.8245 9.8345 34.7127 9.57625 34.5075C9.31801 34.3024 9.13666 34.016 9.06163 33.6948C8.73306 32.2838 8.5674 30.8398 8.5679 29.391C8.55511 25.2773 9.89975 21.2742 12.3934 18.0024C14.83 14.8008 18.2198 12.455 22.0748 11.3031C22.259 11.2486 22.4522 11.231 22.6432 11.2512C22.8343 11.2714 23.0195 11.329 23.1882 11.4207C23.357 11.5125 23.5061 11.6366 23.6269 11.786C23.7477 11.9354 23.8379 12.1071 23.8924 12.2913C23.9469 12.4755 23.9645 12.6687 23.9443 12.8597C23.9241 13.0508 23.8665 13.236 23.7748 13.4048C23.683 13.5736 23.5589 13.7226 23.4095 13.8434C23.2602 13.9642 23.0885 14.0545 22.9042 14.1089C16.1859 16.0933 11.4937 22.3779 11.4937 29.391C11.4932 30.6157 11.6331 31.8364 11.9106 33.0292C11.9608 33.244 11.9617 33.4673 11.9134 33.6825C11.8651 33.8977 11.7688 34.0992 11.6316 34.2719C11.4944 34.4446 11.32 34.5841 11.1213 34.6798C10.9226 34.7756 10.7048 34.8252 10.4843 34.8249ZM27.426 48.2491C24.9496 48.2559 22.4963 47.7717 20.2082 46.8244C17.92 45.8772 15.8424 44.4857 14.0954 42.7304C13.9524 42.5964 13.8378 42.4349 13.7583 42.2557C13.6789 42.0765 13.6363 41.8832 13.633 41.6872C13.6298 41.4912 13.666 41.2966 13.7394 41.1148C13.8128 40.9331 13.9221 40.768 14.0606 40.6292C14.1991 40.4905 14.3641 40.3811 14.5457 40.3074C14.7273 40.2337 14.9219 40.1972 15.1179 40.2002C15.3139 40.2032 15.5073 40.2455 15.6866 40.3247C15.866 40.4039 16.0275 40.5183 16.1618 40.6611C19.1501 43.6475 23.2022 45.3246 27.4269 45.3238C31.6517 45.323 35.7031 43.6442 38.6903 40.6567C38.9647 40.3823 39.3369 40.2282 39.7249 40.2282C40.113 40.2282 40.4851 40.3823 40.7595 40.6567C41.0339 40.9311 41.1881 41.3033 41.1881 41.6914C41.1881 42.0794 41.0339 42.4516 40.7595 42.726C39.0125 44.4823 36.9346 45.8748 34.6459 46.8229C32.3572 47.7709 29.9033 48.2557 27.426 48.2491ZM44.3166 35.0363C44.0945 35.0365 43.8753 34.9861 43.6756 34.8889C43.4759 34.7918 43.3009 34.6504 43.1639 34.4756C43.027 34.3008 42.9316 34.0971 42.8851 33.88C42.8385 33.6628 42.8421 33.4379 42.8954 33.2223C43.2035 31.9688 43.359 30.6826 43.3584 29.3917C43.3584 22.2675 38.5718 15.9558 31.7181 14.0438C31.5331 13.9922 31.36 13.9046 31.2088 13.7861C31.0576 13.6676 30.9312 13.5205 30.8369 13.3531C30.7425 13.1857 30.6821 13.0014 30.659 12.8107C30.6359 12.62 30.6505 12.4266 30.7022 12.2415C30.7538 12.0565 30.8414 11.8834 30.9599 11.7322C31.0784 11.581 31.2255 11.4546 31.3929 11.3603C31.5602 11.266 31.7446 11.2055 31.9353 11.1824C32.126 11.1593 32.3194 11.1739 32.5044 11.2256C36.4246 12.3318 39.885 14.6695 42.3746 17.8934C44.922 21.1838 46.2979 25.2305 46.2841 29.3917C46.2848 30.9187 46.1009 32.4402 45.7363 33.9231C45.6581 34.2406 45.4758 34.5228 45.2185 34.7246C44.9611 34.9264 44.6436 35.0361 44.3166 35.0363Z" fill="url(#paint0_radial_1_126)"/>
<path d="M27.4296 18.2122C26.2824 18.2123 25.1609 17.8723 24.2069 17.235C23.253 16.5977 22.5094 15.6919 22.0703 14.632C21.6311 13.5722 21.5162 12.4059 21.7399 11.2807C21.9636 10.1555 22.516 9.12187 23.3272 8.3106C24.1383 7.49933 25.1719 6.94683 26.297 6.72296C27.4222 6.49909 28.5885 6.61391 29.6484 7.05291C30.7084 7.4919 31.6143 8.23535 32.2517 9.18923C32.8891 10.1431 33.2293 11.2646 33.2293 12.4118C33.2275 13.9495 32.616 15.4237 31.5287 16.5111C30.4415 17.5985 28.9673 18.2102 27.4296 18.2122ZM27.4296 9.53797C26.861 9.53782 26.3052 9.70631 25.8323 10.0221C25.3595 10.3379 24.9909 10.7869 24.7733 11.3122C24.5556 11.8374 24.4986 12.4155 24.6095 12.9732C24.7204 13.5309 24.9942 14.0431 25.3963 14.4452C25.7983 14.8472 26.3106 15.121 26.8683 15.2319C27.426 15.3428 28.004 15.2858 28.5293 15.0682C29.0546 14.8505 29.5035 14.482 29.8193 14.0091C30.1351 13.5363 30.3036 12.9804 30.3035 12.4118C30.3037 11.6492 30.0011 10.9178 29.4622 10.3782C28.9233 9.83861 28.1922 9.53508 27.4296 9.53431V9.53797ZM42.3028 43.4982C41.1556 43.4984 40.0341 43.1583 39.0801 42.5211C38.1262 41.8838 37.3826 40.978 36.9435 39.9181C36.5044 38.8582 36.3894 37.6919 36.6131 36.5667C36.8368 35.4415 37.3892 34.4079 38.2004 33.5967C39.0115 32.7854 40.0451 32.2329 41.1702 32.009C42.2954 31.7852 43.4617 31.9 44.5216 32.339C45.5816 32.778 46.4875 33.5214 47.1249 34.4753C47.7623 35.4292 48.1025 36.5506 48.1025 37.6979C48.1005 39.2355 47.4889 40.7096 46.4017 41.797C45.3145 42.8843 43.8405 43.4961 42.3028 43.4982ZM42.3028 34.824C41.7342 34.8239 41.1784 34.9924 40.7055 35.3082C40.2327 35.624 39.8641 36.0729 39.6465 36.5982C39.4288 37.1235 39.3718 37.7016 39.4827 38.2592C39.5936 38.8169 39.8674 39.3292 40.2695 39.7312C40.6715 40.1333 41.1838 40.4071 41.7415 40.518C42.2992 40.6289 42.8772 40.5719 43.4025 40.3542C43.9278 40.1366 44.3767 39.768 44.6925 39.2952C45.0084 38.8223 45.1768 38.2665 45.1767 37.6979C45.1757 36.936 44.8726 36.2056 44.3339 35.6668C43.7952 35.1281 43.0647 34.825 42.3028 34.824ZM12.3867 43.4982C11.2395 43.4984 10.118 43.1583 9.16402 42.5211C8.21006 41.8838 7.4665 40.978 7.02737 39.9181C6.58824 38.8582 6.47327 37.6919 6.697 36.5667C6.92072 35.4415 7.4731 34.4079 8.28426 33.5967C9.09543 32.7854 10.129 32.2329 11.2541 32.009C12.3793 31.7852 13.5456 31.9 14.6055 32.339C15.6655 32.778 16.5714 33.5214 17.2088 34.4753C17.8462 35.4292 18.1864 36.5506 18.1864 37.6979C18.1846 39.2356 17.573 40.7098 16.4858 41.7972C15.3986 42.8846 13.9244 43.4963 12.3867 43.4982ZM12.3867 34.824C11.8181 34.8239 11.2623 34.9924 10.7894 35.3082C10.3166 35.624 9.94803 36.0729 9.73037 36.5982C9.51271 37.1235 9.45572 37.7016 9.56662 38.2592C9.67751 38.8169 9.9513 39.3292 10.3534 39.7312C10.7554 40.1333 11.2677 40.4071 11.8254 40.518C12.3831 40.6289 12.9611 40.5719 13.4864 40.3542C14.0117 40.1366 14.4606 39.768 14.7764 39.2952C15.0922 38.8223 15.2607 38.2665 15.2606 37.6979C15.2598 36.9359 14.9568 36.2054 14.418 35.6666C13.8792 35.1278 13.1487 34.8248 12.3867 34.824Z" fill="url(#paint1_radial_1_126)"/>
<path d="M26.7836 34.8298C26.6122 34.8294 26.4434 34.7882 26.291 34.7097C26.1387 34.6312 26.0071 34.5177 25.9073 34.3784L23.75 31.4439C23.7453 31.4375 23.7388 31.4328 23.7313 31.4304C23.7238 31.428 23.7157 31.4281 23.7083 31.4306L20.2503 32.5746C20.0298 32.6477 19.7918 32.6492 19.5704 32.5787C19.349 32.5083 19.1556 32.3695 19.018 32.1823C18.8804 31.9951 18.8056 31.7692 18.8043 31.5369C18.8031 31.3045 18.8754 31.0778 19.011 30.8891L21.1354 27.9309C21.14 27.9246 21.1425 27.9169 21.1425 27.909C21.1425 27.9012 21.14 27.8935 21.1354 27.8871L18.9799 24.952C18.8421 24.7649 18.7672 24.539 18.7658 24.3066C18.7644 24.0742 18.8366 23.8474 18.9721 23.6586C19.1077 23.4699 19.2995 23.3289 19.5201 23.256C19.7407 23.183 19.9788 23.1818 20.2001 23.2525L23.6703 24.3593C23.6775 24.3618 23.6854 24.3619 23.6927 24.3597C23.7 24.3575 23.7065 24.3531 23.7112 24.3471L25.8356 21.3892C25.9712 21.2011 26.1628 21.0606 26.3831 20.988C26.6033 20.9153 26.8409 20.9142 27.0618 20.9846C27.2828 21.0551 27.4758 21.1937 27.6132 21.3805C27.7507 21.5673 27.8256 21.7927 27.8272 22.0246L27.8468 25.6669C27.8468 25.6749 27.8494 25.6827 27.8542 25.6891C27.859 25.6955 27.8657 25.7002 27.8734 25.7025L31.3433 26.8093C31.5645 26.8799 31.7576 27.0186 31.8951 27.2057C32.0326 27.3928 32.1073 27.6187 32.1086 27.8508C32.1098 28.083 32.0376 28.3096 31.9022 28.4982C31.7667 28.6868 31.5751 28.8277 31.3547 28.9007L27.8986 30.0442C27.891 30.0465 27.8842 30.0512 27.8795 30.0576C27.8747 30.064 27.8721 30.0718 27.872 30.0797L27.8925 33.7209C27.8963 33.9537 27.825 34.1816 27.6892 34.3707C27.5533 34.5598 27.3602 34.7002 27.1383 34.7709C27.024 34.8093 26.9042 34.8292 26.7836 34.8298Z" fill="url(#paint2_radial_1_126)"/>
<path d="M34.4533 35.2113C34.3064 35.2112 34.1626 35.1687 34.0393 35.0889L29.9453 32.4458C29.7748 32.3357 29.655 32.1624 29.6122 31.964C29.5695 31.7656 29.6074 31.5584 29.7174 31.3879C29.8275 31.2174 30.0008 31.0976 30.1992 31.0549C30.3976 31.0121 30.6049 31.05 30.7754 31.1601L34.8687 33.8031C35.0076 33.8927 35.1138 34.0248 35.1714 34.1798C35.229 34.3347 35.2348 34.5042 35.188 34.6627C35.1412 34.8212 35.0444 34.9604 34.9119 35.0593C34.7795 35.1582 34.6186 35.2115 34.4533 35.2113Z" fill="url(#paint3_radial_1_126)"/>
<defs>
<radialGradient id="paint0_radial_1_126" cx="0" cy="0" r="1" gradientTransform="matrix(35.6169 21.0118 -7.95711 191.54 9.93332 16.3175)" gradientUnits="userSpaceOnUse">
<stop stop-color="#8CDFF4"/>
<stop offset="1" stop-color="#3071E1"/>
</radialGradient>
<radialGradient id="paint1_radial_1_126" cx="0" cy="0" r="1" gradientTransform="matrix(39.2058 20.9038 -8.75889 190.555 8.08873 11.7307)" gradientUnits="userSpaceOnUse">
<stop stop-color="#8CDFF4"/>
<stop offset="1" stop-color="#3071E1"/>
</radialGradient>
<radialGradient id="paint2_radial_1_126" cx="0" cy="0" r="1" gradientTransform="matrix(12.6001 7.87557 -2.81497 71.7923 19.2488 22.8613)" gradientUnits="userSpaceOnUse">
<stop stop-color="#8CDFF4"/>
<stop offset="1" stop-color="#3071E1"/>
</radialGradient>
<radialGradient id="paint3_radial_1_126" cx="0" cy="0" r="1" gradientTransform="matrix(5.31111 2.36518 -1.18655 21.5605 29.7987 31.6169)" gradientUnits="userSpaceOnUse">
<stop stop-color="#8CDFF4"/>
<stop offset="1" stop-color="#3071E1"/>
</radialGradient>
</defs>
</svg>
