<svg width="24" height="24" viewBox="0 0 24 24" fill="none" xmlns="http://www.w3.org/2000/svg">
<path d="M6.04059 16.5336V7.46691C6.04059 6.71928 6.04059 6.34505 6.19792 6.12385C6.33523 5.93078 6.54688 5.80402 6.78185 5.77372C7.05097 5.73901 7.38104 5.91504 8.04025 6.26662L16.5402 10.8L16.5433 10.8013C17.2718 11.1899 17.6363 11.3842 17.7558 11.6433C17.8601 11.8692 17.8601 12.1301 17.7558 12.3561C17.6361 12.6155 17.2708 12.8106 16.5402 13.2003L8.04025 17.7336C7.38057 18.0854 7.05107 18.2608 6.78185 18.2261C6.54688 18.1958 6.33523 18.069 6.19792 17.876C6.04059 17.6547 6.04059 17.2812 6.04059 16.5336Z" stroke="url(#paint0_linear_1_77)" stroke-width="1.5" stroke-linecap="round" stroke-linejoin="round"/>
<defs>
<linearGradient id="paint0_linear_1_77" x1="11.9373" y1="5.76941" x2="11.9373" y2="18.2304" gradientUnits="userSpaceOnUse">
<stop stop-color="white"/>
<stop offset="1" stop-color="#999999"/>
</linearGradient>
</defs>
</svg>
