<svg width="84" height="84" viewBox="0 0 84 84" fill="none" xmlns="http://www.w3.org/2000/svg">
<rect width="83.2523" height="83.2523" rx="41.6261" fill="url(#paint0_radial_1_120)" fill-opacity="0.28"/>
<rect x="0.761454" y="0.761454" width="81.7293" height="81.7293" rx="40.8647" stroke="#37AFF9" stroke-opacity="0.24" stroke-width="1.52291"/>
<path d="M51.3556 55.5008H48.7857C47.6861 55.4996 46.6318 55.062 45.8544 54.2843C45.077 53.5066 44.6399 52.4522 44.639 51.3525V46.0119H37.8279V51.3525C37.8266 52.4519 37.3893 53.5059 36.612 54.2833C35.8346 55.0607 34.7806 55.498 33.6812 55.4992H31.2692C30.1696 55.4984 29.1152 55.0613 28.3374 54.2838C27.5597 53.5064 27.1222 52.4522 27.1209 51.3525V48.0098C27.1222 46.9102 27.5597 45.856 28.3375 45.0787C29.1152 44.3013 30.1696 43.8643 31.2692 43.8636H35.6812V38.6981H31.2692C30.1699 38.697 29.1159 38.2598 28.3385 37.4825C27.5611 36.7052 27.1238 35.6512 27.1225 34.5519V31.2661C27.1234 30.1665 27.5605 29.1121 28.3379 28.3343C29.1153 27.5566 30.1696 27.1191 31.2692 27.1178H33.6828C34.7822 27.1195 35.836 27.5572 36.6131 28.3349C37.3902 29.1126 37.8271 30.1667 37.8279 31.2661V36.5514H44.639V31.2661C44.6403 30.1667 45.0776 29.1127 45.855 28.3354C46.6324 27.558 47.6864 27.1207 48.7857 27.1194H51.3556C52.4553 27.1203 53.5097 27.5574 54.2874 28.3348C55.0651 29.1122 55.5027 30.1665 55.5039 31.2661V34.5535C55.5022 35.6529 55.0645 36.7066 54.2868 37.4836C53.5091 38.2606 52.455 38.6974 51.3556 38.6981H46.7873V43.8636H51.3556C52.455 43.8648 53.5089 44.3019 54.2863 45.0792C55.0637 45.8565 55.5011 46.9105 55.5023 48.0098V51.3525C55.5015 52.4522 55.0644 53.5066 54.2869 54.2843C53.5095 55.062 52.4553 55.4996 51.3556 55.5008ZM46.7873 46.0119V51.3525C46.788 51.8823 46.9988 52.3902 47.3734 52.7648C47.748 53.1395 48.2559 53.3502 48.7857 53.351H51.3556C51.8857 53.3507 52.394 53.1401 52.769 52.7654C53.144 52.3907 53.355 51.8826 53.3557 51.3525V48.0098C53.355 47.4798 53.1439 46.9717 52.769 46.5971C52.394 46.2225 51.8856 46.012 51.3556 46.0119H46.7873ZM31.266 46.0119C30.7362 46.0125 30.2283 46.2231 29.8537 46.5977C29.4791 46.9722 29.2683 47.4801 29.2676 48.0098V51.3525C29.2678 51.8832 29.4789 52.392 29.8542 52.767C30.2296 53.1421 30.7386 53.3527 31.2692 53.3526H33.6828C34.2126 53.3514 34.7203 53.1402 35.0947 52.7653C35.469 52.3904 35.6794 51.8823 35.6796 51.3525V46.0119H31.266ZM37.8263 43.8636H44.639V38.6981H37.8279L37.8263 43.8636ZM46.7873 36.5498H51.3556C51.8854 36.5492 52.3933 36.3386 52.7679 35.964C53.1425 35.5895 53.3533 35.0817 53.3541 34.5519V31.2661C53.3538 30.736 53.1432 30.2277 52.7685 29.8528C52.3938 29.4778 51.8857 29.2668 51.3556 29.2661H48.7857C48.2557 29.2668 47.7475 29.4778 47.3729 29.8528C46.9982 30.2277 46.7876 30.736 46.7873 31.2661V36.5498ZM31.2692 29.2661C30.7389 29.2664 30.2303 29.4772 29.8553 29.8522C29.4803 30.2272 29.2695 30.7358 29.2692 31.2661V34.5535C29.2703 35.0833 29.4815 35.5909 29.8565 35.9652C30.2314 36.3394 30.7395 36.5497 31.2692 36.5498H35.6812V31.2661C35.6805 30.7363 35.4698 30.2284 35.0951 29.8538C34.7205 29.4792 34.2126 29.2684 33.6828 29.2677L31.2692 29.2661Z" fill="url(#paint1_radial_1_120)"/>
<defs>
<radialGradient id="paint0_radial_1_120" cx="0" cy="0" r="1" gradientUnits="userSpaceOnUse" gradientTransform="translate(41.6261 41.6261) rotate(90) scale(41.6261)">
<stop offset="0.389423" stop-color="#0B5FC2"/>
<stop offset="0.8125" stop-color="#2388FF" stop-opacity="0"/>
<stop offset="1" stop-color="#00A2FF"/>
</radialGradient>
<radialGradient id="paint1_radial_1_120" cx="0" cy="0" r="1" gradientTransform="matrix(26.8031 16.0847 -5.98803 146.625 28.1485 31.0569)" gradientUnits="userSpaceOnUse">
<stop stop-color="#8CDFF4"/>
<stop offset="1" stop-color="#3071E1"/>
</radialGradient>
</defs>
</svg>
