<svg width="84" height="84" viewBox="0 0 84 84" fill="none" xmlns="http://www.w3.org/2000/svg">
<rect width="83.2523" height="83.2523" rx="41.6261" fill="url(#paint0_radial_1_105)" fill-opacity="0.28"/>
<rect x="0.761454" y="0.761454" width="81.7293" height="81.7293" rx="40.8647" stroke="#37AFF9" stroke-opacity="0.24" stroke-width="1.52291"/>
<path d="M33.532 40.5032C33.3946 40.5032 33.2572 40.4516 33.1505 40.3554C32.7773 40.0079 32.4557 39.7276 32.1677 39.4945C30.8968 38.4468 29.9243 38.084 29.4367 38.084H25.5366C25.2282 38.084 24.9764 37.8322 24.9764 37.526V33.2367C24.9764 32.936 25.2282 32.6787 25.5366 32.6787H29.3928C30.9853 32.6864 32.5695 33.218 34.2318 34.3179C35.0591 34.8627 35.8875 35.5317 36.833 36.4156C36.9435 36.514 37.0078 36.6591 37.0106 36.807C37.0172 36.9549 36.9589 37.1027 36.8561 37.2116C36.3169 37.7772 35.7853 38.3451 35.2598 38.9102C34.8046 39.4027 34.3665 39.8722 33.9361 40.3262C33.8278 40.4466 33.6799 40.5032 33.532 40.5032Z" fill="url(#paint1_radial_1_105)"/>
<path d="M50.7108 54.3655C50.6306 54.3655 50.5531 54.3501 50.475 54.3133C50.2804 54.2199 50.1507 54.0258 50.1507 53.8103V50.9788H47.389C45.7811 50.9705 44.1781 50.4439 42.5015 49.35C41.6726 48.808 40.8431 48.1467 39.8915 47.2699C39.7783 47.1688 39.7178 47.0264 39.714 46.8758C39.7085 46.723 39.7618 46.58 39.8679 46.4712C40.4451 45.8698 41.0102 45.2657 41.5665 44.6638C41.987 44.2103 42.3899 43.7749 42.7885 43.3538C43.0012 43.1339 43.3486 43.1207 43.5784 43.3258C43.9335 43.6578 44.2463 43.9272 44.5289 44.1503C45.6261 45.048 46.676 45.5768 47.3455 45.5768H50.1512V42.5403C50.1512 42.3226 50.2804 42.1175 50.4756 42.0263C50.6724 41.9383 50.9082 41.9669 51.0747 42.1065L57.7537 47.7526C57.8818 47.8587 57.9571 48.0148 57.9571 48.1802C57.9571 48.3457 57.8818 48.5018 57.7537 48.6107L51.0747 54.2336C50.9703 54.3243 50.8411 54.3655 50.7108 54.3655Z" fill="url(#paint2_radial_1_105)"/>
<path d="M29.3284 50.9816H25.5366C25.2282 50.9816 24.9764 50.7299 24.9764 50.4187V46.1398C24.9764 45.8309 25.2282 45.5797 25.5366 45.5797H29.3279C29.8435 45.5797 30.5257 45.3125 31.2728 44.8249C32.0792 44.301 33.0703 43.4556 34.2126 42.2963C34.9349 41.5778 35.6534 40.7972 36.4158 39.9804C37.9121 38.3543 39.4667 36.6761 41.1515 35.3046C42.6506 34.0985 44.707 32.7088 47.3209 32.6803H50.153V29.7009C50.153 29.4832 50.2821 29.2831 50.4773 29.1896C50.6741 29.1017 50.9099 29.1325 51.0765 29.2699L57.7554 34.9132C57.8843 35.0201 57.9589 35.1789 57.9588 35.3463C57.9588 35.5123 57.8807 35.663 57.7554 35.774L51.0765 41.3964C50.9099 41.5338 50.6746 41.5701 50.4773 41.4794C50.2827 41.386 50.153 41.1864 50.153 40.9709V38.085H47.3258C47.0356 38.085 46.4336 38.1784 45.4563 38.8293C44.6575 39.3476 43.6774 40.1986 42.5384 41.3579C41.8431 42.0632 41.1515 42.8108 40.4149 43.6062C38.8823 45.2586 37.2986 46.9726 35.5704 48.365C34.0477 49.5733 31.9769 50.9558 29.3306 50.9822C29.3306 50.9816 29.3306 50.9816 29.3284 50.9816Z" fill="url(#paint3_radial_1_105)"/>
<defs>
<radialGradient id="paint0_radial_1_105" cx="0" cy="0" r="1" gradientUnits="userSpaceOnUse" gradientTransform="translate(41.6261 41.6261) rotate(90) scale(41.6261)">
<stop offset="0.389423" stop-color="#0B5FC2"/>
<stop offset="0.8125" stop-color="#2388FF" stop-opacity="0"/>
<stop offset="1" stop-color="#00A2FF"/>
</radialGradient>
<radialGradient id="paint1_radial_1_105" cx="0" cy="0" r="1" gradientTransform="matrix(11.3647 4.43416 -2.53898 40.421 25.4121 33.7646)" gradientUnits="userSpaceOnUse">
<stop stop-color="#8CDFF4"/>
<stop offset="1" stop-color="#3071E1"/>
</radialGradient>
<radialGradient id="paint2_radial_1_105" cx="0" cy="0" r="1" gradientTransform="matrix(17.2279 7.02105 -3.84886 64.0026 40.3741 43.6956)" gradientUnits="userSpaceOnUse">
<stop stop-color="#8CDFF4"/>
<stop offset="1" stop-color="#3071E1"/>
</radialGradient>
<radialGradient id="paint3_radial_1_105" cx="0" cy="0" r="1" gradientTransform="matrix(31.1464 12.3779 -6.95835 112.835 26.1705 32.1715)" gradientUnits="userSpaceOnUse">
<stop stop-color="#8CDFF4"/>
<stop offset="1" stop-color="#3071E1"/>
</radialGradient>
</defs>
</svg>
